<?xml version="1.0" encoding="utf-8"?>
<!-- Generator: Adobe Illustrator 24.0.0, SVG Export Plug-In . SVG Version: 6.00 Build 0)  -->
<svg version="1.1" id="Capa_1" xmlns="http://www.w3.org/2000/svg" xmlns:xlink="http://www.w3.org/1999/xlink" x="0px" y="0px"
	 viewBox="0 0 325 325" style="enable-background:new 0 0 325 325;" xml:space="preserve">
<style type="text/css">
	.st0{fill:#FFFFFF;}
	.st1{fill:#0E9B91;}
</style>
<path class="st0" d="M268.4,63.5c0-3.7-3-6.7-6.7-6.7H62c-3.7,0-6.7,3-6.7,6.7v31.7h213.1V63.5L268.4,63.5z"/>
<path class="st0" d="M55.4,263.2c0,3.7,3,6.7,6.7,6.7h199.7c3.7,0,6.7-3,6.7-6.7V108.5H55.4V263.2z"/>
<g>
	<path class="st1" d="M261.8,43.5H62c-11,0-20,9-20,20v199.7c0,11.1,9,20,20,20h199.7c11,0,20-9,20-20V63.5
		C281.7,52.5,272.8,43.5,261.8,43.5z M55.4,63.5c0-3.7,3-6.7,6.7-6.7h199.7c3.7,0,6.7,3,6.7,6.7v31.7H55.4V63.5z M268.4,263.2
		L268.4,263.2c0,3.7-3,6.7-6.7,6.7H62c-3.7,0-6.7-3-6.7-6.7V108.5h213.1V263.2L268.4,263.2z"/>
	<path class="st1" d="M250.9,69.1h-12.8c-3.7,0-6.7,3-6.7,6.7c0,3.7,3,6.7,6.7,6.7h12.8c3.7,0,6.7-3,6.7-6.7
		C257.6,72,254.6,69.1,250.9,69.1z"/>
	<path class="st1" d="M116.5,224c4.8,4.4,9.8,1.6,11.3,0c3.1-3.1,3.1-8.1,0-11.3l-25.5-25.5l25.5-25.5c3.1-3.1,3.1-8.1,0-11.3
		c-3.1-3.1-8.1-3.1-11.3,0l-31.2,31.2c-1.5,1.5-2.3,3.5-2.3,5.7c0,2.1,0.9,4.1,2.3,5.7L116.5,224z"/>
	<path class="st1" d="M197.7,224c1.6,1.6,6.4,4.5,11.3,0l31.2-31.2c1.5-1.5,2.3-3.5,2.3-5.7c0-2.1-0.9-4.1-2.3-5.7l-31.2-31.2
		c-3.1-3.1-8.1-3.1-11.3,0c-3.1,3.1-3.1,8.1,0,11.3l25.5,25.5l-25.5,25.6C194.6,215.8,194.6,220.9,197.7,224z"/>
	<path class="st1" d="M143.5,244.8c4.9,1.8,9-1.7,10.1-5l34.3-99.6c1.4-4.2-0.8-8.7-5-10.1c-4.2-1.4-8.7,0.8-10.1,5l-34.2,99.6
		C137.1,238.9,139.4,243.4,143.5,244.8z"/>
</g>
</svg>
